# Blender v2.83.0 OBJ File: 'track.blend'
# www.blender.org
mtllib Environment.mtl
o polygon0.001_polygon0.003
v 162.900391 95.269524 -478.184753
v 368.573090 152.141357 -357.356750
v 368.573090 95.269508 -357.356750
v 486.276794 152.141327 -149.880371
v 486.276794 95.269470 -149.880386
v 484.472992 152.141281 88.651405
v 484.472992 95.269432 88.651398
v 363.644867 152.141251 294.324036
v 363.644867 95.269402 294.324036
v 156.168488 152.141235 412.027710
v 156.168488 95.269379 412.027710
v -82.363220 152.141235 410.223816
v -82.363220 95.269379 410.223816
v -288.035980 152.141251 289.395935
v -288.035980 95.269402 289.395935
v -405.739594 152.141281 81.919418
v -405.739594 95.269432 81.919411
v -403.935760 152.141327 -156.612259
v -75.631271 95.269524 -479.988617
v 162.900391 152.141373 -478.184753
v -75.631271 152.141373 -479.988617
v -283.107697 152.141357 -362.284851
v -403.935760 95.269470 -156.612274
v 162.900391 -6.722921 -478.184784
v 368.573090 -6.722940 -357.356781
v 162.900391 -125.489319 -478.184814
v 368.573090 -125.489334 -357.356812
v 486.276794 -6.722974 -149.880402
v 486.276794 -125.489372 -149.880417
v 484.472992 -6.723013 88.651382
v 484.472992 -125.489410 88.651360
v 363.644867 -6.723047 294.324005
v 363.644867 -125.489441 294.323975
v 156.168488 -6.723066 412.027679
v 156.168488 -125.489464 412.027649
v -82.363220 -6.723065 410.223785
v -82.363220 -125.489464 410.223755
v -288.035980 -6.723046 289.395905
v -288.035980 -125.489441 289.395874
v -405.739594 -6.723012 81.919395
v -405.739594 -125.489410 81.919373
v -403.935760 -6.722973 -156.612289
v -403.935760 -125.489372 -156.612305
v -283.107697 95.269508 -362.284851
v -283.107697 -6.722939 -362.284882
v -283.107697 -125.489334 -362.284912
v -75.631271 -6.722920 -479.988647
v -75.631271 -125.489319 -479.988678
vt 1.009644 0.806152
vt 1.009644 0.866333
vt 1.011597 0.806152
vt 1.007690 0.866333
vt 1.007690 0.806152
vt 1.005615 0.866333
vt 1.005615 0.806152
vt 1.003662 0.866333
vt 1.003662 0.806152
vt 1.001587 0.866333
vt 1.001587 0.806152
vt 0.999634 0.866333
vt 0.999634 0.806152
vt 0.997559 0.866333
vt 0.997559 0.806152
vt 0.995606 0.866333
vt 0.995606 0.806152
vt 0.993530 0.866333
vt 0.987549 0.866333
vt 0.989502 0.806152
vt 0.987549 0.806152
vt 0.989502 0.866333
vt 0.993530 0.806152
vt 0.991577 0.866333
vt 1.011597 0.866333
vt 1.903198 0.026978
vt 1.569702 0.989990
vt 1.903198 0.989990
vt 1.569702 0.026978
vt 1.903198 0.014404
vt 1.569702 0.014404
vt 1.236328 0.989990
vt 1.236328 0.026978
vt 1.236328 0.014404
vt 0.902832 0.989990
vt 0.902832 0.026978
vt 0.902832 0.014404
vt 0.569458 0.989990
vt 0.569458 0.026978
vt 0.569458 0.014404
vt 0.235962 0.989990
vt 0.235962 0.026978
vt 0.235962 0.014404
vt -0.097412 0.989990
vt -0.097412 0.026978
vt -0.097412 0.014404
vt -0.430908 0.989990
vt -0.430908 0.026978
vt -0.430908 0.014404
vt -0.764282 0.989990
vt -0.764282 0.026978
vt -0.764282 0.014404
vt -1.097778 0.989990
vt -1.097778 0.026978
vt -1.097778 0.014404
vt -1.431152 0.989990
vt -1.431152 0.026978
vt -1.431152 0.014404
vt -1.764648 0.989990
vt -1.764648 0.026978
vt -1.764648 0.014404
vt -2.098022 0.989990
vt -2.098022 0.026978
vt -2.098022 0.014404
vt 0.991577 0.806152
vn -0.5065 0.0000 0.8622
vn -0.8698 0.0000 0.4934
vn -1.0000 -0.0000 -0.0076
vn -0.8622 0.0000 -0.5065
vn -0.4934 0.0000 -0.8698
vn 0.0076 0.0000 -1.0000
vn 0.5065 0.0000 -0.8622
vn 0.8698 0.0000 -0.4934
vn 1.0000 -0.0000 0.0076
vn -0.0076 0.0000 1.0000
vn 0.8622 0.0000 0.5065
vn 0.4934 -0.0000 0.8698
usemtl a_sky
s off
f 3/1/1 2/2/1 1/3/1
f 4/4/2 2/2/2 3/1/2
f 5/5/2 4/4/2 3/1/2
f 6/6/3 4/4/3 5/5/3
f 7/7/3 6/6/3 5/5/3
f 8/8/4 6/6/4 7/7/4
f 9/9/4 8/8/4 7/7/4
f 10/10/5 8/8/5 9/9/5
f 11/11/5 10/10/5 9/9/5
f 12/12/6 10/10/6 11/11/6
f 13/13/6 12/12/6 11/11/6
f 14/14/7 12/12/7 13/13/7
f 15/15/7 14/14/7 13/13/7
f 16/16/8 14/14/8 15/15/8
f 17/17/8 16/16/8 15/15/8
f 18/18/9 16/16/9 17/17/9
f 20/19/10 19/20/10 1/21/10
f 21/22/10 19/20/10 20/19/10
f 23/23/11 22/24/11 18/18/11
f 17/17/9 23/23/9 18/18/9
f 1/3/1 2/2/1 20/25/1
f 24/26/1 3/27/1 1/28/1
f 25/29/1 3/27/1 24/26/1
f 26/30/1 25/29/1 24/26/1
f 27/31/1 25/29/1 26/30/1
f 25/29/2 5/32/2 3/27/2
f 28/33/2 5/32/2 25/29/2
f 27/31/2 28/33/2 25/29/2
f 29/34/2 28/33/2 27/31/2
f 28/33/3 7/35/3 5/32/3
f 30/36/3 7/35/3 28/33/3
f 29/34/3 30/36/3 28/33/3
f 31/37/3 30/36/3 29/34/3
f 30/36/4 9/38/4 7/35/4
f 32/39/4 9/38/4 30/36/4
f 31/37/4 32/39/4 30/36/4
f 33/40/4 32/39/4 31/37/4
f 32/39/5 11/41/5 9/38/5
f 34/42/5 11/41/5 32/39/5
f 33/40/5 34/42/5 32/39/5
f 35/43/5 34/42/5 33/40/5
f 34/42/6 13/44/6 11/41/6
f 36/45/6 13/44/6 34/42/6
f 35/43/6 36/45/6 34/42/6
f 37/46/6 36/45/6 35/43/6
f 36/45/7 15/47/7 13/44/7
f 38/48/7 15/47/7 36/45/7
f 37/46/7 38/48/7 36/45/7
f 39/49/7 38/48/7 37/46/7
f 38/48/8 17/50/8 15/47/8
f 40/51/8 17/50/8 38/48/8
f 39/49/8 40/51/8 38/48/8
f 41/52/8 40/51/8 39/49/8
f 40/51/9 23/53/9 17/50/9
f 42/54/9 23/53/9 40/51/9
f 41/52/9 42/54/9 40/51/9
f 43/55/9 42/54/9 41/52/9
f 42/54/11 44/56/11 23/53/11
f 45/57/11 44/56/11 42/54/11
f 43/55/11 45/57/11 42/54/11
f 46/58/11 45/57/11 43/55/11
f 45/57/12 19/59/12 44/56/12
f 47/60/12 19/59/12 45/57/12
f 46/58/12 47/60/12 45/57/12
f 48/61/12 47/60/12 46/58/12
f 47/60/10 1/62/10 19/59/10
f 24/63/10 1/62/10 47/60/10
f 48/61/10 24/63/10 47/60/10
f 26/64/10 24/63/10 48/61/10
f 44/65/11 22/24/11 23/23/11
f 21/22/12 22/24/12 44/65/12
f 19/20/12 21/22/12 44/65/12
