# Blender v2.83.0 OBJ File: ''
# www.blender.org
mtllib trackpart8.mtl
o polygon41_ID255.001
v 29.912298 9.999966 69.709099
v 26.845299 9.999966 69.709099
v 26.845299 9.999980 41.265697
v 31.035898 9.999966 68.516296
v 31.157598 9.999966 69.332199
v 33.008297 9.999969 66.930397
v 33.013699 9.999966 67.813995
v 2.910720 9.999980 39.678398
v 2.912430 9.999980 38.896099
v 6.219530 9.999980 39.861099
v 6.134611 9.999980 40.612297
v 2.845250 9.999966 69.709099
v 8.845250 9.999966 69.709099
v 45.748398 9.999980 40.428398
v 45.748398 9.999969 62.820198
v 40.130100 9.999969 62.820198
v 38.847897 9.999980 41.285599
v 38.845299 9.999980 40.428398
v 38.913097 9.999969 62.514797
v 38.915001 9.999969 63.141899
v 32.850796 9.999980 41.324696
v 130.869003 9.999969 62.820198
v 130.869003 9.999980 40.428398
v 137.423996 9.999980 40.428398
v 137.423996 9.999969 62.820198
v 117.759003 9.999969 62.820198
v 117.759003 9.999980 40.428398
v 124.314003 9.999980 40.428398
v 124.314003 9.999969 62.820198
v 104.649002 9.999969 62.820198
v 104.649002 9.999980 40.428398
v 111.204002 9.999980 40.428398
v 111.204002 9.999969 62.820198
v 91.539497 9.999969 62.820198
v 91.539497 9.999980 40.428398
v 98.094391 9.999980 40.428398
v 98.094391 9.999969 62.820198
v 78.429794 9.999969 62.820198
v 78.429794 9.999980 40.428398
v 84.984695 9.999980 40.428398
v 84.890800 9.999969 62.820198
v 65.320000 9.999969 62.820198
v 65.320000 9.999980 40.428398
v 71.874893 9.999980 40.428398
v 71.874893 9.999969 62.820198
v 52.210197 9.999969 62.820198
v 52.210197 9.999980 40.428398
v 58.765095 9.999980 40.428398
v 58.765095 9.999969 62.820198
v 14.845299 9.999966 69.709099
v 14.845299 9.999980 40.428398
v 20.845301 9.999980 40.428398
v 20.845301 9.999966 69.709099
v 8.876010 9.999980 41.004097
v 8.876821 9.999980 40.252399
v -130.061005 9.999969 64.799995
v -130.061005 9.999966 70.799995
v -162.455002 9.999966 70.799995
v -162.455002 9.999969 64.799995
v -130.061005 9.999971 58.799999
v -162.455002 9.999971 58.799999
v -162.455002 9.999974 52.799999
v -130.061005 9.999974 52.799999
v -130.061005 9.999980 40.799999
v -130.061005 9.999977 46.799999
v -162.455002 9.999977 46.799999
v -162.455002 9.999980 40.799999
v -130.061005 9.999989 22.800005
v -162.455002 9.999989 22.800005
v -162.455002 9.999991 16.800005
v -130.061005 9.999991 16.800005
v -130.061005 9.999994 10.800006
v -162.455002 9.999994 10.800006
v -162.455002 9.999997 4.800004
v -130.061005 9.999997 4.800004
v -130.061005 10.000000 -1.199994
v -162.455002 10.000000 -1.199994
v -162.455002 10.000003 -7.199995
v -130.061005 10.000003 -7.199995
v -130.061005 10.000006 -13.199994
v -162.455002 10.000006 -13.199994
v -162.455002 10.000009 -19.199993
v -130.061005 10.000009 -19.199993
v -130.061005 9.999986 28.800005
v -130.061005 9.999983 34.799999
v -162.455002 9.999983 34.799999
v -162.455002 9.999986 28.800005
v -162.455002 10.000029 -56.399998
v -130.061005 10.000029 -56.399998
v -130.061005 10.000026 -50.399998
v -162.455002 10.000026 -50.399998
v -130.061005 10.000023 -44.399998
v -130.061005 10.000020 -38.399998
v -162.455002 10.000020 -38.399998
v -162.455002 10.000023 -44.399998
v -130.061005 10.000037 -74.400002
v -162.455002 10.000037 -74.400002
v -162.455002 10.000040 -80.400002
v -130.061005 10.000040 -80.400002
v -130.061005 10.000043 -86.400002
v -162.455002 10.000043 -86.400002
v -162.455002 10.000047 -92.400002
v -130.061005 10.000047 -92.400002
v -130.061005 10.000034 -68.400002
v -130.061005 10.000031 -62.399998
v -162.455002 10.000031 -62.399998
v -162.455002 10.000034 -68.400002
v -130.061005 10.000049 -98.400002
v -162.455002 10.000049 -98.400002
v -162.455002 10.000051 -104.399994
v -130.061005 10.000051 -104.399994
v -130.061005 10.000011 -25.199993
v -162.455002 10.000011 -25.199993
v -162.455002 10.000014 -31.199993
v -130.061005 10.000014 -31.199993
v 143.979004 9.999969 62.820198
v 143.979004 9.999980 40.428398
v 150.533997 9.999980 40.428398
v 150.533997 9.999969 62.820198
v 26.845299 9.999980 40.428398
v 32.845299 9.999980 40.428398
v -147.916992 9.999960 82.799995
v -162.455002 9.999960 82.799995
v -162.455002 9.999963 76.799995
v -130.061005 9.999963 76.799995
v -137.473999 9.999960 82.799995
v -130.061005 9.999960 82.799995
vt -9.000000 17.887699
vt -8.028319 18.193399
vt -9.000000 18.193399
vt -8.971680 17.751001
vt -9.000000 17.737299
vt -8.967770 17.487299
vt -9.000000 17.487299
vt -8.025390 20.793001
vt -8.000000 20.362299
vt -8.000000 20.793001
vt -8.025390 20.373100
vt -9.000000 20.795900
vt -9.000000 20.050800
vt -8.000000 13.295899
vt -9.000000 14.073199
vt -9.000000 13.295899
vt -8.038090 14.567400
vt -8.000000 14.576200
vt -8.972660 14.354500
vt -9.000000 14.348599
vt -8.033200 17.487299
vt -9.000000 2.477540
vt -8.000000 1.731440
vt -8.000000 2.477540
vt -9.000000 1.731440
vt -9.000000 4.188480
vt -8.000000 3.369140
vt -8.000000 4.188480
vt -9.000000 3.369140
vt -9.000000 5.854490
vt -8.000000 5.050780
vt -8.000000 5.854490
vt -9.000000 5.050780
vt -9.000000 7.521480
vt -8.000000 6.717770
vt -8.000000 7.521480
vt -9.000000 6.717770
vt -9.000000 9.130859
vt -8.000000 8.296880
vt -8.000000 9.130859
vt -9.000000 8.303710
vt -9.000000 10.670899
vt -8.000000 9.878910
vt -8.000000 10.670899
vt -9.000000 9.878910
vt -9.000000 12.303699
vt -8.000000 11.483399
vt -8.000000 12.303699
vt -9.000000 11.483399
vt -9.000000 19.406300
vt -8.000000 18.812500
vt -8.000000 19.406300
vt -9.000000 18.812500
vt -8.025390 20.050800
vt -8.000000 20.050800
vt -18.000000 -7.872070
vt -19.000000 -8.593750
vt -18.000000 -8.593750
vt -19.000000 -7.872070
vt -18.000000 -7.150390
vt -19.000000 -6.428710
vt -19.000000 -7.150390
vt -18.000000 -6.428710
vt -18.000000 -4.985350
vt -19.000000 -5.707030
vt -18.000000 -5.707030
vt -19.000000 -4.985350
vt -18.000000 -2.819340
vt -19.000000 -2.097660
vt -19.000000 -2.819340
vt -18.000000 -2.097660
vt -18.000000 -1.375980
vt -19.000000 -0.654297
vt -19.000000 -1.375980
vt -18.000000 -0.654297
vt -18.000000 0.067383
vt -19.000000 0.789063
vt -19.000000 0.067383
vt -18.000000 0.789063
vt -18.000000 1.510740
vt -19.000000 2.232420
vt -19.000000 1.510740
vt -18.000000 2.232420
vt -18.000000 -3.541020
vt -19.000000 -4.263670
vt -18.000000 -4.263670
vt -19.000000 -3.541020
vt -19.000000 6.708010
vt -18.000000 5.986330
vt -18.000000 6.708010
vt -19.000000 5.986330
vt -18.000000 5.264650
vt -19.000000 4.542970
vt -18.000000 4.542970
vt -19.000000 5.264650
vt -18.000000 8.873050
vt -19.000000 9.594729
vt -19.000000 8.873050
vt -18.000000 9.594729
vt -18.000000 10.317400
vt -19.000000 11.039100
vt -19.000000 10.317400
vt -18.000000 11.039100
vt -18.000000 8.151370
vt -19.000000 7.429690
vt -18.000000 7.429690
vt -19.000000 8.151370
vt -18.000000 11.760699
vt -19.000000 12.482400
vt -19.000000 11.760699
vt -18.000000 12.482400
vt -18.000000 2.955080
vt -19.000000 3.676760
vt -19.000000 2.955080
vt -18.000000 3.676760
vt -9.000000 0.883789
vt -8.000000 0.108398
vt -8.000000 0.883789
vt -9.000000 0.108398
vt -8.000000 18.193399
vt -8.000000 17.487299
vt -18.553699 -10.037100
vt -19.000000 -9.315430
vt -19.000000 -10.037100
vt -18.000000 -9.315430
vt -18.225599 -10.037100
vt -18.000000 -10.037100
vn 0.0000 1.0000 0.0000
usemtl a_road_lt.001
s 1
f 1/1/1 3/2/1 2/3/1
f 4/4/1 3/2/1 1/1/1
f 5/5/1 4/4/1 1/1/1
f 6/6/1 4/4/1 5/5/1
f 7/7/1 6/6/1 5/5/1
f 8/8/1 10/9/1 9/10/1
f 11/11/1 10/9/1 8/8/1
f 12/12/1 11/11/1 8/8/1
f 13/13/1 11/11/1 12/12/1
f 14/14/1 16/15/1 15/16/1
f 17/17/1 16/15/1 14/14/1
f 18/18/1 17/17/1 14/14/1
f 19/19/1 16/15/1 17/17/1
f 20/20/1 16/15/1 19/19/1
f 6/6/1 3/2/1 4/4/1
f 21/21/1 3/2/1 6/6/1
f 22/22/1 24/23/1 23/24/1
f 25/25/1 24/23/1 22/22/1
f 26/26/1 28/27/1 27/28/1
f 29/29/1 28/27/1 26/26/1
f 30/30/1 32/31/1 31/32/1
f 33/33/1 32/31/1 30/30/1
f 34/34/1 36/35/1 35/36/1
f 37/37/1 36/35/1 34/34/1
f 38/38/1 40/39/1 39/40/1
f 41/41/1 40/39/1 38/38/1
f 42/42/1 44/43/1 43/44/1
f 45/45/1 44/43/1 42/42/1
f 46/46/1 48/47/1 47/48/1
f 49/49/1 48/47/1 46/46/1
f 50/50/1 52/51/1 51/52/1
f 53/53/1 52/51/1 50/50/1
f 54/54/1 11/11/1 13/13/1
f 55/55/1 11/11/1 54/54/1
f 56/56/1 58/57/1 57/58/1
f 59/59/1 58/57/1 56/56/1
f 60/60/1 62/61/1 61/62/1
f 63/63/1 62/61/1 60/60/1
f 64/64/1 66/65/1 65/66/1
f 67/67/1 66/65/1 64/64/1
f 68/68/1 70/69/1 69/70/1
f 71/71/1 70/69/1 68/68/1
f 72/72/1 74/73/1 73/74/1
f 75/75/1 74/73/1 72/72/1
f 76/76/1 78/77/1 77/78/1
f 79/79/1 78/77/1 76/76/1
f 80/80/1 82/81/1 81/82/1
f 83/83/1 82/81/1 80/80/1
f 84/84/1 86/85/1 85/86/1
f 87/87/1 86/85/1 84/84/1
f 88/88/1 90/89/1 89/90/1
f 91/91/1 90/89/1 88/88/1
f 92/92/1 94/93/1 93/94/1
f 95/95/1 94/93/1 92/92/1
f 96/96/1 98/97/1 97/98/1
f 99/99/1 98/97/1 96/96/1
f 100/100/1 102/101/1 101/102/1
f 103/103/1 102/101/1 100/100/1
f 104/104/1 106/105/1 105/106/1
f 107/107/1 106/105/1 104/104/1
f 108/108/1 110/109/1 109/110/1
f 111/111/1 110/109/1 108/108/1
f 112/112/1 114/113/1 113/114/1
f 115/115/1 114/113/1 112/112/1
f 116/116/1 118/117/1 117/118/1
f 119/119/1 118/117/1 116/116/1
f 21/21/1 120/120/1 3/2/1
f 121/121/1 120/120/1 21/21/1
f 10/9/1 11/11/1 55/55/1
f 122/122/1 124/123/1 123/124/1
f 125/125/1 124/123/1 122/122/1
f 126/126/1 125/125/1 122/122/1
f 127/127/1 125/125/1 126/126/1
